<svg version="1.1" id="Layer_1" viewBox="0 0 1288.8 344.1" style="enable-background:new 0 0 1288.8 344.1;" xmlns="http://www.w3.org/2000/svg">
  <defs id="defs9" />
  <style type="text/css" id="style1">
    .st0{fill:#F4F4F4;stroke:#F4F4F4;stroke-width:2;stroke-miterlimit:10;}
    .st1{fill:#4E5CA6;}
    .st2{enable-background:new;}
    .st3{fill:#303031;}
  </style>
  <path class="st0" d="m 191.97816,7.5 h 150.5 c 49.2,0 89.1,39.9 89.1,89.1 v 150.5 c 0,49.2 -39.9,89.1 -89.1,89.1 h -150.5 c -49.2,0 -89.1,-39.9 -89.1,-89.1 V 96.6 c 0,-49.2 39.9,-89.1 89.1,-89.1 z" id="path1" />
  <text xml:space="preserve" style="font-style:italic;font-weight:600;font-size:89.8941px;font-family:'Bookman Old Style';-inkscape-font-specification:'Bookman Old Style Semi-Bold Italic';text-align:start;letter-spacing:9.55px;word-spacing:2.53px;writing-mode:lr-tb;direction:ltr;text-anchor:start;white-space:pre;inline-size:65.2167;display:inline;fill:#4e5ca6;fill-opacity:1" x="605.49554" y="42.441277" id="text10-9" transform="matrix(1.6573962,0,0,2.7524139,-795.97421,122.20877)">
    <tspan x="605.49554" y="42.441277" id="tspan2">B</tspan>
  </text>
  <g class="st2" id="g9" transform="matrix(1.0913375,0,0,1.0725321,9.0728423,-53.88003)">
    <text xml:space="preserve" style="font-style:italic;font-weight:600;font-size:637.045px;font-family:'Bookman Old Style';-inkscape-font-specification:'Bookman Old Style Semi-Bold Italic';text-align:start;letter-spacing:9.55px;word-spacing:2.53px;writing-mode:lr-tb;direction:ltr;text-anchor:start;white-space:pre;inline-size:65.2167;display:inline;fill:#303031;fill-opacity:1" x="605.49554" y="42.441277" id="text10" transform="matrix(1.6573962,0,0,2.7524139,-556.80773,149.14937)">
      <tspan x="605.49554" y="42.441277" id="tspan4">
        <tspan style="font-size:70.7828px" id="tspan3">B</tspan>
      </tspan>
    </text>
    <text xml:space="preserve" style="font-style:italic;font-weight:600;font-size:151.181px;font-family:'Bookman Old Style';-inkscape-font-specification:'Bookman Old Style Semi-Bold Italic';text-align:start;letter-spacing:15.1462px;word-spacing:4.01253px;writing-mode:lr-tb;direction:ltr;text-anchor:start;fill:#303031;fill-opacity:1;stroke-width:1.58599" x="695.13177" y="206.74849" id="text11" transform="scale(0.76649955,1.3046322)">
      <tspan sodipodi:role="line" id="tspan11" x="695.13177" y="206.74849" style="font-size:151.181px;stroke-width:1.58599">locky</tspan>
    </text>
  </g>
</svg>